<svg id="Icono1" xmlns="http://www.w3.org/2000/svg" viewBox="0 0 669.33 716.3"><defs><style>.cls-1{fill:none;stroke:#372b61;stroke-linecap:square;stroke-miterlimit:10;stroke-width:21px;}.cls-2{font-size:92.3px;fill:#372b61;}.cls-2,.cls-3{font-family:Asap-Regular, Asap;}.cls-3{font-size:6px;fill:#1d1d1b;}</style></defs><title>3</title><g id="_11" data-name="11"><polyline class="cls-1" points="14.46 211.72 334.66 12.37 654.86 211.72"/><polyline class="cls-1" points="499.47 60.15 499.47 24.05 574.46 24.05 574.46 155.45"/><polyline class="cls-1" points="574.46 215.89 574.46 571.5 94.87 571.5 94.87 215.89"/><path class="cls-1" d="M596.33,614c-52.43,0-92-23.78-92-74.1s53.45-66.61,92-140.87c69.34,38.38,100.61,89,100.61,139.34,0,34.1-22.11,56.71-52.68,67.75" transform="translate(-265.99 -183.11)"/><path class="cls-1" d="M600.65,501.6s-21.74,129.65,27.93,159.66" transform="translate(-265.99 -183.11)"/></g><text class="cls-2" transform="translate(94.5 694.43)">Sustentable</text><text class="cls-3" transform="translate(305.97 386.1)">Aislamiento Térmico</text></svg>