<svg id="Icono3" xmlns="http://www.w3.org/2000/svg" viewBox="0 0 665.22 604.73"><defs><style>.cls-1{font-size:95.8px;font-family:Asap-Regular, Asap;}.cls-1,.cls-2{fill:#372b61;}</style></defs><title>Mesa de trabajo 3</title><text class="cls-1" transform="translate(102.7 582.02)">Aligerante</text><path class="cls-2" d="M941.53,363.34v.09c-.27,4.19-.59,8.38-.79,12.57a208.76,208.76,0,0,1-7.09,44.31,285.85,285.85,0,0,1-25.71,64,277.24,277.24,0,0,1-63.24,77.76c-32.2,27.51-69.57,46.82-111.61,58.69A348.15,348.15,0,0,1,680,631.31c-16.1,1.93-21.94,2.9-38.18,2.77-2.09,0-20.46-3-22.36-3.79-19.83-8.38-33.82-14.42-53.61-22.87l-.2-.08a1.36,1.36,0,0,0-1.89,1.27c0,2.1,0,4.09,0,6.08C563.63,628,550,637.17,536.19,633.1a268.06,268.06,0,0,1-70.28-32.63c-22-14.22-40.72-31.35-55.78-51.8a174.4,174.4,0,0,1-29.89-64.07c-.44-1.86-7.05-26.85-7.67-28.83-.32-1-1.44-1-2.37-.41-5.93,3.73-10.58,8.78-19.19,24.26-5.13,11.84-13.09,31.79-15.08,45.5-1.47,10.16-2.15,20.42-3.16,30.82a1.37,1.37,0,0,1-1.36,1.23H313.2a1.37,1.37,0,0,1-1.36-1.36c0-1,0-2,0-3,.54-23.18,4.23-45.81,13.9-67.41a120.45,120.45,0,0,1,28.54-40c.25-.22.47-.46.78-.77a358.39,358.39,0,0,1-72-80.93c-1.79-2.76-3.5-5.57-5.19-8.41a10.88,10.88,0,0,1,5.24-15.63c6.66-2.71,3.59-1.92,10.17-4.6a8.66,8.66,0,0,1,10.7,3.59c18.72,31.29,45.91,63.93,75.06,87.91a2.47,2.47,0,0,0,2.71-.39c.25-.32,6.14-9.08,6.36-9.4a291.51,291.51,0,0,1,68.25-69.69c11.4-8.26,23.52-15.37,37.63-19.22,14.28-3.9,27.74,5.19,27.76,18.84s0,27.14,0,40.71v.27a1.35,1.35,0,0,0,2,1.19h0c12.59-6.61,25.21-13.18,37.76-19.87a30.7,30.7,0,0,1,14.91-3.74c18.61,0,37.22.06,55.82-.38,32-.76,60.58-10.18,85.19-29.22,11.58-9,21.65-19.24,31.69-29.57,11-11.28,21.77-22.73,33.46-33.36A86.09,86.09,0,0,1,833,250.61a98.09,98.09,0,0,1,58.47,12c25.67,14.3,41,35.43,47.51,62.1,1.09,4.53,1.47,9.22,2.19,13.83a12,12,0,0,0,.33,1.28,1.5,1.5,0,0,1,0,.37ZM852.32,382a3.15,3.15,0,0,1,1.44,4.4c-.65,1.16.55-10-.13-8.95-3.23,5.15-6.37,10.35-9.82,15.38-23.78,34.61-55.32,61.6-95,80.45C713.47,490.06,675.62,499,636.35,503c-16.1,1.67-32.33,2.46-48.52,3.19a376.73,376.73,0,0,1-71.13-3,316.39,316.39,0,0,1-75.8-20.65c-3.91-1.62-34.53-16.92-43.92-22.39-1-.6-.24,10.31,0,11.47,1.33,5.47,4,16.55,4.21,16.94,3,6.81,14.28,27.13,17.73,33.73,9.37,18,22.69,33.23,38.95,46.37,8.13,6.57,44.65,31.51,54.38,36,6.3,2.92,23.84,11.48,32.27,15a1.33,1.33,0,0,0,1.86-1.2c.13-5.15.56-16.93.6-18.89.15-7.83,5.87-12.19,13.91-14.79,7-2.27,9.12,8.86,15.31,12.59,22.3,13.47,16.21,7.59,41.68,15.16,3,.9,31,5.05,34.11,5.05,13.78,0,36.63-2.84,54.63-7.26,19.89-4.74,43-14.41,62.52-21.16,40.74-16.42,58.89-36.43,86.76-69.27a245.29,245.29,0,0,0,45.4-80.42c4.91-14.42,13.7-46.88,14.68-62,.85-13.14,1.23-26.33,1.32-39.5a56.75,56.75,0,0,0-5-23c-11.31-26-53.09-49.57-77.09-45.81-8.29,1.3-15,5.69-20.59,11.16-9.79,9.57-19.33,19.37-28.74,29.25-12.51,13.14-25.49,25.79-40.33,36.83-32.07,23.84-70.88,36.41-111.82,37.73-16.7.53-33.44.29-50.15.5a10.21,10.21,0,0,0-4.49,1.12c-22,11.44-30.91,14.08-53,25.45-15,7.72-31.83-1.46-31.85-17.18,0-12.74,5.72-25.06,5.72-37.8,0-.48.58-7.15.75-10.3.06-1.1-1.7-1-2.73-.63-21.22,8.22-33.78,21.91-42,30.09-13.8,11.35-33.75,32.77-44.21,46.74-3.7,4.94-8.31,14.27-7.92,19.92.39.22.56.33.74.42,3,1.69,6.05,3.43,9.13,5.07,36.05,19.16,91.82,30.33,133.36,32.56,17.2.93,34.41.41,51.6-.43A468.39,468.39,0,0,0,653.1,474c20.8-3.48,41.08-8.53,60.53-16.21,21.53-8.5,41.2-19.68,58.42-34.34a196,196,0,0,0,44.44-54.89,3.9,3.9,0,0,1,.19-.35,2.32,2.32,0,0,1,3-.95Z" transform="translate(-276.31 -250.09)"/></svg>