<svg xmlns="http://www.w3.org/2000/svg" xmlns:xlink="http://www.w3.org/1999/xlink" viewBox="0 0 1211.34 1091.34"><defs><style>.cls-1{fill:url(#Degradado_sin_nombre_49);}.cls-2{fill:#fff;}.cls-3{fill:none;stroke:#fff;stroke-miterlimit:10;stroke-width:3px;}</style><radialGradient id="Degradado_sin_nombre_49" cx="605.67" cy="545.67" r="576.45" gradientUnits="userSpaceOnUse"><stop offset="0" stop-color="#1c1645"/><stop offset="1" stop-color="#0c0924"/></radialGradient></defs><title>3</title><g id="Capa_1" data-name="Capa 1"><rect class="cls-1" width="1211.34" height="1091.34"/></g><g id="Viga"><path class="cls-2" d="M656.09,576.91,650.38,430.7H547l-4.44,143.6-70.4,18.28v97.25H725.85v-94ZM532.63,647a12.41,12.41,0,1,1,11.84-12.4A12.13,12.13,0,0,1,532.63,647Zm69-159.48c-6.54,0-11.84-5.56-11.84-12.4s5.3-12.41,11.84-12.41,11.84,5.56,11.84,12.41S608.17,487.49,601.63,487.49ZM670.43,647a12.41,12.41,0,1,1,11.84-12.4A12.13,12.13,0,0,1,670.43,647Z" transform="translate(5.67 5.67)"/><line class="cls-3" x1="380.36" y1="695.5" x2="840.1" y2="695.5"/><line class="cls-3" x1="374.24" y1="436.37" x2="833.97" y2="436.37"/><line class="cls-3" x1="380.36" y1="742.49" x2="840.1" y2="742.5"/><line class="cls-3" x1="374.24" y1="389.37" x2="833.97" y2="389.37"/><line class="cls-3" x1="477.84" y1="316.14" x2="477.84" y2="784.13"/><line class="cls-3" x1="731.51" y1="316.14" x2="731.51" y2="784.13"/><line class="cls-3" x1="442.22" y1="316.12" x2="442.22" y2="784.15"/><line class="cls-3" x1="767.13" y1="316.12" x2="767.13" y2="784.15"/></g></svg>