<svg id="Icono2" xmlns="http://www.w3.org/2000/svg" viewBox="0 0 526.67 701.48"><defs><style>.cls-1{font-size:57px;font-family:Asap-Regular, Asap;}.cls-1,.cls-2{fill:#372b61;}.cls-3{fill:#9c9e9e;}</style></defs><title>3</title><text class="cls-1" transform="translate(0 687.97)">Aislamiento Térmico</text><path class="cls-2" d="M602.38,390.37l-55.19-31.78a58.46,58.46,0,0,0-.27-31.58l55.46-31.94L590,272l-55.72,32.09a55.37,55.37,0,0,0-28.12-17v-66.2H480.68v66.2a55.37,55.37,0,0,0-28.12,17L396.84,272l-12.38,23.07L439.92,327a58.68,58.68,0,0,0-.27,31.57l-55.19,31.78,12.38,23.08,55-31.68a55.46,55.46,0,0,0,28.84,17.81v65h25.48v-65A55.46,55.46,0,0,0,535,381.77l55,31.68Zm-88.06-35.61a13.57,13.57,0,0,0-.5,11.67,30.26,30.26,0,0,1-10.24,6.38,12.37,12.37,0,0,0-20.32,0A30.16,30.16,0,0,1,473,366.43a13.6,13.6,0,0,0-.5-11.67,12.68,12.68,0,0,0-8.94-6.53,31.41,31.41,0,0,1-.48-4.89,33.12,33.12,0,0,1,.6-6.18,12.67,12.67,0,0,0,8.82-6.47,13.55,13.55,0,0,0,.85-10.73A29.94,29.94,0,0,1,484,313.62a12.32,12.32,0,0,0,18.76,0A30.06,30.06,0,0,1,513.47,320a13.57,13.57,0,0,0,.85,10.74,12.67,12.67,0,0,0,8.82,6.47,32.3,32.3,0,0,1,.6,6.18,32.67,32.67,0,0,1-.47,4.89A12.7,12.7,0,0,0,514.32,354.76Z" transform="translate(-340.91 -183.9)"/><path class="cls-2" d="M743.09,740c-1.63,0-3.26,0-4.91-.1-65-2.56-118.72-59.52-119.69-127-.65-45.32,21.45-87.2,58.17-111.16V262.48c0-37.91,29.77-68.76,66.37-68.76s66.38,30.85,66.38,68.76V501.73c36.06,23.55,58.17,64.69,58.17,109.18,0,35.4-13.56,68.42-38.18,93C806,727.25,775.48,740,743.09,740ZM743,220.12c-22.55,0-40.89,19-40.89,42.36V509.27a13.3,13.3,0,0,1-6.62,11.58c-32.35,18.35-52.1,53.47-51.55,91.64.77,53.64,43.47,98.94,95.18,101a96.75,96.75,0,0,0,72.58-28.61,103.6,103.6,0,0,0,30.37-74c0-37.5-19.76-72-51.56-90.06a13.3,13.3,0,0,1-6.62-11.58V262.48C783.92,239.13,765.58,220.12,743,220.12Z" transform="translate(-340.91 -183.9)"/><path class="cls-3" d="M528.24,501.54a12.52,12.52,0,0,1-9.29-4.16l-25.53-28.12-25.53,28.12a12.43,12.43,0,0,1-18,.58,13.55,13.55,0,0,1-.55-18.67L484.14,441a12.82,12.82,0,0,1,18.56,0l34.81,38.34A13.55,13.55,0,0,1,537,498,12.49,12.49,0,0,1,528.24,501.54Zm71.11-43.34a12.8,12.8,0,0,1-12.13-9.2l-15.44-50.15a13.64,13.64,0,0,1,1-10.42,12.87,12.87,0,0,1,8-6.39l49.27-12.88a12.71,12.71,0,0,1,15.47,9.56,13.26,13.26,0,0,1-9.23,16l-36.13,9.45L611.5,441a13.31,13.31,0,0,1-8.27,16.58A12.21,12.21,0,0,1,599.35,458.2Zm-211.86,0a12.21,12.21,0,0,1-3.88-.63A13.29,13.29,0,0,1,375.34,441l11.32-36.78-36.12-9.45a13.25,13.25,0,0,1-9.24-16,12.7,12.7,0,0,1,15.47-9.56L406,382a12.86,12.86,0,0,1,8,6.39,13.64,13.64,0,0,1,1,10.42L399.62,449A12.8,12.8,0,0,1,387.49,458.2ZM633.2,316.69a12.44,12.44,0,0,1-3.13-.4L580.8,303.4a12.82,12.82,0,0,1-8-6.38,13.67,13.67,0,0,1-1-10.43l15.44-50.15a12.65,12.65,0,0,1,16-8.57,13.32,13.32,0,0,1,8.27,16.59l-11.32,36.78,36.13,9.45a13.24,13.24,0,0,1,9.23,16A12.84,12.84,0,0,1,633.2,316.69Zm-279.55,0a12.85,12.85,0,0,1-12.35-10,13.24,13.24,0,0,1,9.24-16l36.12-9.45-11.32-36.78a13.3,13.3,0,0,1,8.27-16.59,12.66,12.66,0,0,1,16,8.57l15.44,50.15a13.67,13.67,0,0,1-1,10.43,12.82,12.82,0,0,1-8,6.38l-49.27,12.89A12.42,12.42,0,0,1,353.65,316.69Zm139.77-68h0a12.56,12.56,0,0,1-9.28-4.16l-34.81-38.34a13.54,13.54,0,0,1,.55-18.66,12.43,12.43,0,0,1,18,.57l25.53,28.12L519,188.06a12.44,12.44,0,0,1,18-.57,13.54,13.54,0,0,1,.55,18.66L502.7,244.49A12.56,12.56,0,0,1,493.42,248.65Zm262.35,278V303.81a12.75,12.75,0,1,0-25.48,0V526.68C691.65,533,662,567.7,662,609.48c0,46.29,36.35,83.95,81,83.95s81-37.66,81-83.95C824.06,567.7,794.4,533,755.77,526.68ZM743,667c-30.63,0-55.55-25.81-55.55-57.55S712.4,551.94,743,551.94s55.55,25.81,55.55,57.54S773.66,667,743,667Z" transform="translate(-340.91 -183.9)"/></svg>