<svg xmlns="http://www.w3.org/2000/svg" xmlns:xlink="http://www.w3.org/1999/xlink" viewBox="0 0 1211.34 1091.34"><defs><style>.cls-1{fill:url(#Degradado_sin_nombre_49);}.cls-2{fill:#fefefe;}.cls-3{fill:none;stroke:#fff;stroke-miterlimit:10;stroke-width:4px;}</style><radialGradient id="Degradado_sin_nombre_49" cx="605.67" cy="545.67" r="576.45" gradientUnits="userSpaceOnUse"><stop offset="0" stop-color="#1c1645"/><stop offset="1" stop-color="#0c0924"/></radialGradient></defs><title>3</title><g id="Capa_1" data-name="Capa 1"><rect class="cls-1" width="1211.34" height="1091.34"/></g><g id="Capa_10" data-name="Capa 10"><path class="cls-2" d="M535.13,602.6,460.21,604a10.78,10.78,0,0,1-5.2-.78c-4.4-2.22-5.76-8.82-2.7-13a19.18,19.18,0,0,1,1.38-1.59q51.78-55.86,103.47-111.78c4.17-4.53,12.81-2.83,15.31,2.95,6.87,15.9,13.75,31.79,21.25,47.33,1.69,3.5,2.34,3.69,5.29,1.33.54-.43,1-.92,1.62-1.29a5.74,5.74,0,0,0,2.48-4.49c1.68-12.42,3.46-24.81,5.2-37.22a18.78,18.78,0,0,1,3.61-8.77,35.35,35.35,0,0,1,11.22-9.92c5.73-3.21,11.43-6.45,17.19-9.58,3.38-1.84,5-4.76,5.24-8.89.73-11.49,5.75-20,15.16-24.76q28.14-14.16,56.55-27.7c14.13-6.71,33.72,3.86,32,25.79-.92,11.43-6.42,19.81-15.78,24.36-18.21,8.85-36.58,17.3-55,25.75a22.51,22.51,0,0,1-20.63-.72,10,10,0,0,0-10.57.3c-5.71,3.36-11.51,6.57-17.4,9.5-5.62,2.79-8.45,7.4-9.25,14.12-1.26,10.55-2.81,21.06-4.37,31.56-.85,5.73-3.42,10.32-7.93,13.47a11,11,0,0,0-3.5,13.4c4.77,10.88,9.59,21.73,14.38,32.6a11.44,11.44,0,0,1-3.73,14,7.81,7.81,0,0,1-4.46,1.17c-19.54.36-39.09.76-58.64,1.09-5.75.1-11.51,0-17.27,0Z" transform="translate(5.67 5.67)"/><line class="cls-3" x1="380.93" y1="609.7" x2="830.41" y2="609.7"/><line class="cls-3" x1="380.94" y1="398.29" x2="830.42" y2="398.29"/><line class="cls-3" x1="380.93" y1="655.65" x2="830.41" y2="655.65"/><line class="cls-3" x1="380.94" y1="352.34" x2="830.42" y2="352.34"/><line class="cls-3" x1="455.92" y1="273.63" x2="455.92" y2="731.19"/><line class="cls-3" x1="755.01" y1="274.63" x2="755.01" y2="732.19"/><line class="cls-3" x1="421.09" y1="274.61" x2="421.09" y2="732.21"/><line class="cls-3" x1="789.84" y1="274.61" x2="789.84" y2="732.21"/></g></svg>